HIERARCHY
ROOT joint_Root
{
	OFFSET 0.0 0.0 0.0
	CHANNELS 6 Xposition Yposition Zposition Zrotation Xrotation Yrotation 
	JOINT Hips
	{
		OFFSET -17.1583 93.1646 452.98
		CHANNELS 6 Xposition Yposition Zposition Zrotation Xrotation Yrotation 
		JOINT Spine
		{
			OFFSET 15.7357 0.0 0.0
			CHANNELS 6 Xposition Yposition Zposition Zrotation Xrotation Yrotation 
			JOINT Chest
			{
				OFFSET 8.98455 -0.406207 0.0
				CHANNELS 6 Xposition Yposition Zposition Zrotation Xrotation Yrotation 
				JOINT Neck
				{
					OFFSET 16.3773 0.0 0.0
					CHANNELS 6 Xposition Yposition Zposition Zrotation Xrotation Yrotation 
					JOINT Head
					{
						OFFSET 6.45672 0.0 0.0
						CHANNELS 6 Xposition Yposition Zposition Zrotation Xrotation Yrotation 
						End Site
						{
							OFFSET 0.0 0.0 0.0
						}
					}
				}
				JOINT Shoulder_L
				{
					OFFSET 12.9942 -0.242716 4.98039
					CHANNELS 6 Xposition Yposition Zposition Zrotation Xrotation Yrotation 
					JOINT UpperArm_L
					{
						OFFSET 5.34809 0.0 0.0
						CHANNELS 6 Xposition Yposition Zposition Zrotation Xrotation Yrotation 
						JOINT LowerArm_L
						{
							OFFSET 24.3286 1.87007e-05 0.0
							CHANNELS 6 Xposition Yposition Zposition Zrotation Xrotation Yrotation 
							JOINT Hand_L
							{
								OFFSET 22.2916 0.0 0.0
								CHANNELS 6 Xposition Yposition Zposition Zrotation Xrotation Yrotation 
								End Site
								{
									OFFSET 0.0 0.0 0.0
								}
							}
						}
					}
				}
				JOINT Shoulder_R
				{
					OFFSET 12.9945 -0.242716 -4.98039
					CHANNELS 6 Xposition Yposition Zposition Zrotation Xrotation Yrotation 
					JOINT UpperArm_R
					{
						OFFSET -5.34813 0.0 0.0
						CHANNELS 6 Xposition Yposition Zposition Zrotation Xrotation Yrotation 
						JOINT LowerArm_R
						{
							OFFSET -24.3289 0.000322201 0.0
							CHANNELS 6 Xposition Yposition Zposition Zrotation Xrotation Yrotation 
							JOINT Hand_R
							{
								OFFSET -22.2915 -0.000108084 0.0
								CHANNELS 6 Xposition Yposition Zposition Zrotation Xrotation Yrotation 
								End Site
								{
									OFFSET 0.0 0.0 0.0
								}
							}
						}
					}
				}
			}
		}
		JOINT UpperLeg_L
		{
			OFFSET -2.19248 -6.46944 0.0
			CHANNELS 6 Xposition Yposition Zposition Zrotation Xrotation Yrotation 
			JOINT LowerLeg_L
			{
				OFFSET 39.0811 0.0 -1.23785e-05
				CHANNELS 6 Xposition Yposition Zposition Zrotation Xrotation Yrotation 
				JOINT Foot_L
				{
					OFFSET 40.9854 0.0 -1.26872e-05
					CHANNELS 6 Xposition Yposition Zposition Zrotation Xrotation Yrotation 
					JOINT Toes_L
					{
						OFFSET 11.7543 0.0 0.0
						CHANNELS 6 Xposition Yposition Zposition Zrotation Xrotation Yrotation 
						End Site
						{
							OFFSET 0.0 0.0 0.0
						}
					}
				}
			}
		}
		JOINT UpperLeg_R
		{
			OFFSET -2.19251 6.46944 0.0
			CHANNELS 6 Xposition Yposition Zposition Zrotation Xrotation Yrotation 
			JOINT LowerLeg_R
			{
				OFFSET -39.0811 -0.00228153 -0.0401928
				CHANNELS 6 Xposition Yposition Zposition Zrotation Xrotation Yrotation 
				JOINT Foot_R
				{
					OFFSET -40.9854 0.0 0.0
					CHANNELS 6 Xposition Yposition Zposition Zrotation Xrotation Yrotation 
					JOINT Toes_R
					{
						OFFSET -11.7543 0.0 0.0
						CHANNELS 6 Xposition Yposition Zposition Zrotation Xrotation Yrotation 
						End Site
						{
							OFFSET 0.0 0.0 0.0
						}
					}
				}
			}
		}
	}
}
MOTION
Frames:	4
Frame Time:	0.0333333
0.000000 0.000000 0.000000 0.000000 0.000000 -0.000000 -1.037410 92.816200 4.990650 88.142000 0.116875 -2.388890 15.735700 0.000005 -0.000001 -52.445400 89.478500 53.752500 8.984550 -0.406207 -0.000000 -8.582690 -0.819994 2.559150 16.377300 -0.000001 -0.000001 -6.669940 3.173330 -2.469220 6.456720 -0.000001 -0.000000 4.648660 2.747400 -6.107340 12.994200 -0.242716 4.980390 -89.603200 -0.791639 -63.376600 5.348090 -0.000007 -0.000001 -41.369700 -56.623600 -99.607500 24.328600 0.000019 0.000005 18.806300 35.098400 -30.630900 22.291600 -0.000001 0.000005 51.805100 4.398380 18.250000 12.994500 -0.242716 -4.980390 93.112800 -6.291010 -63.605000 -5.348130 -0.000001 -0.000004 -49.554600 -54.782000 -109.683000 -24.328900 0.000322 -0.000009 2.068900 5.493570 -20.651900 -22.291500 -0.000108 -0.000004 44.696300 5.639010 -14.087100 -2.192480 -6.469440 -0.000000 -173.233000 -6.090440 1.384350 39.081100 -0.000007 -0.000012 0.020871 -0.105878 11.151700 40.985400 -0.000006 -0.000013 -1.796400 12.551700 -69.983500 11.754300 -0.000000 0.000003 -0.001873 0.194748 -8.675850 -2.192510 6.469440 -0.000001 177.545000 7.877300 -176.917000 -39.081100 -0.002282 -0.040193 -0.002439 0.041073 8.012060 -40.985400 0.000008 0.000006 -9.073240 4.489300 -67.652600 -11.754300 -0.000006 -0.000006 -0.010526 0.275193 -5.391960
0.000000 0.000000 0.000000 0.000000 0.000000 -0.000000 -1.028570 92.819100 4.968760 88.137500 0.085528 -2.356080 15.735700 0.000005 -0.000001 -50.412000 89.510500 51.743700 8.984550 -0.406207 -0.000000 -8.510200 -0.810941 2.609670 16.377300 -0.000001 -0.000001 -6.560390 3.093810 -2.332350 6.456720 -0.000001 -0.000000 4.610890 2.722930 -6.018940 12.994200 -0.242716 4.980390 -89.624000 -0.747609 -63.296000 5.348090 -0.000007 -0.000001 -41.454400 -55.710800 -97.218500 24.328600 0.000019 0.000005 11.984400 30.027300 -22.976800 22.291600 -0.000001 0.000005 49.780700 4.374110 18.640800 12.994500 -0.242716 -4.980390 93.040500 -6.110370 -63.480100 -5.348130 -0.000001 -0.000004 -51.368100 -53.340600 -109.172000 -24.328900 0.000322 -0.000009 0.030459 0.094575 -17.017200 -22.291500 -0.000108 -0.000004 44.978500 5.579890 -10.198200 -2.192480 -6.469440 -0.000000 -173.231000 -6.133180 1.427850 39.081100 -0.000007 -0.000012 0.020430 -0.103809 11.134200 40.985400 -0.000006 -0.000013 -1.772580 12.549900 -69.993800 11.754300 -0.000000 0.000003 -0.001733 0.192955 -8.748760 -2.192510 6.469440 -0.000001 177.556000 7.782810 -176.892000 -39.081100 -0.002282 -0.040193 -0.002464 0.041319 7.999380 -40.985400 0.000008 0.000006 -8.979460 4.432480 -67.689100 -11.754300 -0.000006 -0.000006 -0.010561 0.275453 -5.381300
0.000000 0.000000 0.000000 0.000000 0.000000 -0.000000 -1.016220 92.805600 4.959210 88.112200 0.110309 -2.394610 15.735700 0.000005 -0.000001 -53.602900 89.528300 54.958700 8.984550 -0.406207 -0.000000 -8.515430 -0.750432 2.662360 16.377300 -0.000001 -0.000001 -6.400020 2.963470 -2.197610 6.456720 -0.000001 -0.000000 4.516890 2.565910 -5.862120 12.994200 -0.242716 4.980390 -89.590300 -0.806577 -63.069200 5.348090 -0.000007 -0.000001 -40.057300 -54.509000 -92.965900 24.328600 0.000019 0.000005 6.608220 24.844100 -15.403900 22.291600 -0.000001 0.000005 46.122800 4.349340 19.025400 12.994500 -0.242716 -4.980390 93.025900 -6.032700 -63.298100 -5.348130 -0.000001 -0.000004 -52.524800 -52.347100 -107.046000 -24.328900 0.000322 -0.000009 -1.232260 -5.061350 -13.719300 -22.291500 -0.000108 -0.000004 43.873100 5.491020 -6.153720 -2.192480 -6.469440 -0.000000 -173.242000 -6.136290 1.248220 39.081100 -0.000007 -0.000012 0.022775 -0.112891 11.406100 40.985400 -0.000006 -0.000013 -1.607200 12.528000 -70.230700 11.754300 -0.000000 0.000003 -0.001910 0.195217 -8.656780 -2.192510 6.469440 -0.000001 177.615000 7.766180 -177.027000 -39.081100 -0.002282 -0.040193 -0.002194 0.038480 8.186280 -40.985400 0.000008 0.000006 -8.727490 4.357210 -67.852900 -11.754300 -0.000006 -0.000006 -0.010652 0.276113 -5.354300
0.000000 0.000000 0.000000 0.000000 0.000000 -0.000000 -1.005400 92.827100 4.935430 88.121800 0.237468 -2.510590 15.735700 0.000005 -0.000001 -56.670200 89.515700 58.056300 8.984550 -0.406207 -0.000000 -8.565340 -0.727814 2.724470 16.377300 -0.000001 -0.000001 -6.251240 2.781260 -2.037710 6.456720 -0.000001 -0.000000 4.387480 2.431630 -5.892090 12.994200 -0.242716 4.980390 -89.476800 -1.017020 -62.776100 5.348090 -0.000007 -0.000001 -39.358000 -52.765000 -88.426000 24.328600 0.000019 0.000005 2.850310 20.259200 -8.170780 22.291600 -0.000001 0.000005 40.979800 4.325290 19.409700 12.994500 -0.242716 -4.980390 93.039200 -6.014440 -63.127700 -5.348130 -0.000001 -0.000004 -52.583400 -51.792700 -103.464000 -24.328900 0.000322 -0.000009 -1.823050 -10.146000 -10.254700 -22.291500 -0.000108 -0.000004 43.104600 5.355020 -1.520650 -2.192480 -6.469440 -0.000000 -173.245000 -6.086620 1.166640 39.081100 -0.000007 -0.000012 0.019765 -0.099520 11.233200 40.985400 -0.000006 -0.000013 -1.760360 12.620700 -70.019200 11.754300 -0.000000 0.000003 -0.001768 0.193400 -8.730660 -2.192510 6.469440 -0.000001 177.594000 7.893670 -176.977000 -39.081100 -0.002282 -0.040193 -0.002239 0.040562 7.834500 -40.985400 0.000008 0.000006 -8.984420 4.368820 -67.578700 -11.754300 -0.000006 -0.000006 -0.010671 0.276253 -5.348550
